<svg width="150" height="95" viewBox="0 0 150 95" fill="none" xmlns="http://www.w3.org/2000/svg">
<path d="M68.6837 0L137.736 48.4507L128.249 61.9195L66.4914 18.5868C62.4629 15.7602 61.4929 10.2092 64.325 6.18835L68.6837 0Z" fill="#3CC2D4"/>
<path d="M79.5649 33.0248C80.0246 32.9277 80.6188 32.7344 81.0673 33.0491L149.377 80.9785L139.89 94.4471L77.937 50.9774L12.9592 69.3576C8.22145 70.6977 3.29186 67.9506 1.94915 63.2219L0 56.3557L77.5726 33.5952L79.5649 33.0248Z" fill="#3CC2D4"/>
<path d="M122.553 20.1246C122.553 24.4252 119.06 27.9116 114.752 27.9116C110.443 27.9116 106.95 24.4252 106.95 20.1246C106.95 15.824 110.443 12.3376 114.752 12.3376C119.06 12.3376 122.553 15.824 122.553 20.1246Z" fill="#3CC2D4"/>
</svg>
